<svg width="504" height="413" viewBox="0 0 504 413" fill="none" xmlns="http://www.w3.org/2000/svg">
<mask id="mask0_56_166" style="mask-type:luminance" maskUnits="userSpaceOnUse" x="0" y="0" width="504" height="413">
<rect width="504" height="413" fill="white"/>
</mask>
<g mask="url(#mask0_56_166)">
<path d="M92.5152 388.048C94.3277 390.034 96.7502 391.213 99.3133 391.359C101.83 391.502 104.383 391.374 106.904 391.374H317.139C319.896 391.378 322.541 390.182 324.491 388.052C326.44 385.922 327.534 383.032 327.531 380.019V140.496C327.531 137.255 327.63 133.993 327.525 130.754C327.329 124.644 322.735 119.803 317.139 119.809H106.904C104.383 119.809 101.83 119.682 99.3133 119.825C93.9396 120.137 89.6724 124.879 89.4779 130.754C89.3727 133.993 89.4712 137.255 89.4712 140.496V380.019C89.4674 383.032 90.5629 385.921 92.5152 388.048L92.5152 388.048Z" fill="white"/>
<mask id="mask1_56_166" style="mask-type:luminance" maskUnits="userSpaceOnUse" x="89" y="119" width="239" height="273">
<path fill-rule="evenodd" clip-rule="evenodd" d="M92.5152 388.048C94.3277 390.034 96.7502 391.213 99.3133 391.359C101.83 391.502 104.383 391.374 106.904 391.374H317.139C319.896 391.378 322.541 390.182 324.491 388.052C326.44 385.922 327.534 383.032 327.531 380.019V140.496C327.531 137.255 327.63 133.993 327.525 130.754C327.329 124.644 322.735 119.803 317.139 119.809H106.904C104.383 119.809 101.83 119.682 99.3133 119.825C93.9396 120.137 89.6724 124.879 89.4779 130.754C89.3727 133.993 89.4712 137.255 89.4712 140.496V380.019C89.4674 383.032 90.5629 385.921 92.5152 388.048L92.5152 388.048Z" fill="white"/>
</mask>
<g mask="url(#mask1_56_166)">
<path d="M73.2396 387.623C337.591 387.623 320.647 385.933 327.573 317.527C334.499 249.12 357.688 398.601 357.688 398.601L332.953 418.026L182.226 438.294" fill="#D6DCF2"/>
</g>
<path fill-rule="evenodd" clip-rule="evenodd" d="M92.5152 388.048C94.3277 390.034 96.7502 391.213 99.3133 391.359C101.83 391.502 104.383 391.374 106.904 391.374H317.139C319.896 391.378 322.541 390.182 324.491 388.052C326.44 385.922 327.534 383.032 327.531 380.019V140.496C327.531 137.255 327.63 133.993 327.525 130.754C327.329 124.644 322.735 119.803 317.139 119.809H106.904C104.383 119.809 101.83 119.682 99.3133 119.825C93.9396 120.137 89.6724 124.879 89.4779 130.754C89.3727 133.993 89.4712 137.255 89.4712 140.496V380.019C89.4674 383.032 90.5629 385.921 92.5152 388.048L92.5152 388.048Z" stroke="#190000" stroke-width="1.1" stroke-linecap="round" stroke-linejoin="round"/>
<path d="M110.586 193.947C120.417 204.665 136.145 205.299 146.672 195.403C157.199 185.506 158.971 168.42 150.738 156.2C142.505 143.981 127.046 140.753 115.27 148.795C103.493 156.837 99.375 173.434 105.821 186.874C107.073 189.481 108.68 191.866 110.586 193.947Z" fill="black" stroke="#190000" stroke-width="1.1" stroke-linecap="round" stroke-linejoin="round"/>
<path d="M176.164 168.586C177.676 170.242 179.73 171.172 181.871 171.169H238.36C241.588 171.177 244.506 169.071 245.767 165.824C247.078 162.514 246.404 158.664 244.066 156.117C242.554 154.461 240.5 153.532 238.36 153.535H181.871C178.551 153.536 175.57 155.757 174.355 159.133C173.592 161.293 173.631 163.694 174.464 165.824C174.863 166.855 175.441 167.793 176.164 168.586Z" fill="#D6DCF2" stroke="#190000" stroke-width="1.1" stroke-linecap="round" stroke-linejoin="round"/>
<path d="M175.455 191.404C177.005 193.096 178.885 193.211 180.952 193.211H270.749C273.063 193.211 275.291 193.33 277.054 191.404C277.613 190.791 278.047 190.056 278.327 189.247C279.134 186.974 278.634 184.396 277.054 182.675C275.291 180.749 273.063 180.867 270.749 180.867H180.952C178.885 180.867 177.005 180.982 175.455 182.675C173.262 185.091 173.262 188.988 175.455 191.404Z" fill="black" stroke="#190000" stroke-width="1.1" stroke-linecap="round" stroke-linejoin="round"/>
<path d="M106.379 367.61C107.903 369.28 109.973 370.216 112.131 370.213H304.872C309.364 370.213 313.005 366.235 313.005 361.326V234.501C313.005 229.593 309.364 225.614 304.872 225.614H112.131C107.638 225.614 103.997 229.593 103.997 234.501V361.326C103.994 363.684 104.852 365.946 106.379 367.61Z" fill="#18203F" stroke="#190000" stroke-width="1.1" stroke-linecap="round" stroke-linejoin="round"/>
<path d="M108.596 364.482H226.255L216.348 345.735L198.648 312.239L190.894 297.564L184.914 286.247L177.398 272.025L172.987 263.677C171.84 261.506 169.72 260.169 167.425 260.169C165.131 260.169 163.01 261.506 161.863 263.677L157.554 271.833L149.937 286.247L143.957 297.564L136.202 312.239L118.502 345.735L108.596 364.482Z" fill="black"/>
<mask id="mask2_56_166" style="mask-type:luminance" maskUnits="userSpaceOnUse" x="108" y="260" width="119" height="105">
<path fill-rule="evenodd" clip-rule="evenodd" d="M108.596 364.482H226.255L216.348 345.735L198.648 312.239L190.894 297.564L184.914 286.247L177.398 272.025L172.987 263.677C171.84 261.506 169.72 260.169 167.425 260.169C165.131 260.169 163.01 261.506 161.863 263.677L157.554 271.833L149.937 286.247L143.957 297.564L136.202 312.239L118.502 345.735L108.596 364.482Z" fill="white"/>
</mask>
<g mask="url(#mask2_56_166)">
<path d="M177.398 272.025C184.355 317.971 168.7 354.312 169.473 372.843C170.246 391.374 226.255 355.108 226.255 355.108L216.623 317.527" fill="#010702"/>
</g>
<path fill-rule="evenodd" clip-rule="evenodd" d="M108.596 364.482H226.255L216.348 345.735L198.648 312.239L190.894 297.564L184.914 286.247L177.398 272.025L172.987 263.677C171.84 261.506 169.72 260.169 167.425 260.169C165.131 260.169 163.01 261.506 161.863 263.677L157.554 271.833L149.937 286.247L143.957 297.564L136.202 312.239L118.502 345.735L108.596 364.482Z" stroke="#190000" stroke-width="1.1" stroke-linecap="round" stroke-linejoin="round"/>
<path d="M173.806 364.482H278.704L269.872 352.035L254.091 329.797L247.178 320.054L241.846 312.541L235.146 303.098L231.214 297.556C230.145 296.051 228.3 295.275 226.432 295.229C224.445 295.18 222.432 295.956 221.296 297.556L217.454 302.971L210.663 312.541L205.332 320.054L198.418 329.797L182.638 352.035L173.806 364.482Z" fill="black" stroke="#190000" stroke-width="1.1" stroke-linecap="round" stroke-linejoin="round"/>
<path d="M258.425 278.636C262.973 283.6 269.374 285.974 275.749 285.062C282.123 284.15 287.748 280.055 290.974 273.979C292.207 271.658 293.05 269.115 293.462 266.469C293.659 265.206 293.757 263.927 293.757 262.645C293.762 257.472 292.139 252.455 289.16 248.434C284.897 242.678 278.325 239.565 271.566 240.099C264.806 240.633 258.713 244.747 255.252 251.114C253.355 254.603 252.357 258.588 252.363 262.645C252.362 263.927 252.461 265.206 252.658 266.469C253.07 269.115 253.913 271.658 255.146 273.979C256.05 275.68 257.152 277.245 258.425 278.636Z" fill="#FBD164" stroke="#190000" stroke-width="1.1" stroke-linecap="round" stroke-linejoin="round"/>
<path d="M106.379 367.61C107.903 369.28 109.973 370.216 112.131 370.213H304.872C307.03 370.216 309.1 369.281 310.626 367.613C312.152 365.946 313.008 363.684 313.005 361.326V349.052H103.997V361.326C103.994 363.684 104.851 365.946 106.379 367.61L106.379 367.61Z" fill="#399FE8" stroke="#190000" stroke-width="1.1" stroke-linecap="round" stroke-linejoin="round"/>
<path d="M136.303 170.302C136.528 173.557 134.936 176.882 132.361 178.538" stroke="#E84B23" stroke-width="1.1" stroke-linecap="round" stroke-linejoin="round"/>
<path d="M226.205 265.477C226.44 267.8 225.155 270.211 223.191 271.134" stroke="#D6DCF2" stroke-width="1.1" stroke-linecap="round" stroke-linejoin="round"/>
<path d="M311.48 372.348L315.39 376.62L319.68 381.308L324.337 386.395C327.62 389.982 332.943 389.982 336.226 386.395L340.858 381.334L344.44 377.42L349.083 372.348H401.631C406.384 372.348 410.943 370.285 414.303 366.613C417.664 362.941 419.552 357.961 419.552 352.768V266.114C419.552 255.3 411.529 246.534 401.631 246.534H258.931C254.176 246.528 249.615 248.589 246.253 252.262C242.892 255.936 241.005 260.919 241.01 266.114V352.768C241.01 357.961 242.898 362.941 246.259 366.613C249.62 370.285 254.178 372.348 258.931 372.348L311.48 372.348Z" fill="#828282"/>
<mask id="mask3_56_166" style="mask-type:luminance" maskUnits="userSpaceOnUse" x="241" y="246" width="179" height="144">
<path fill-rule="evenodd" clip-rule="evenodd" d="M311.48 372.348L315.39 376.62L319.68 381.308L324.337 386.395C327.62 389.982 332.943 389.982 336.226 386.395L340.858 381.334L344.44 377.42L349.083 372.348H401.631C406.384 372.348 410.943 370.285 414.303 366.613C417.664 362.941 419.552 357.961 419.552 352.768V266.114C419.552 255.3 411.529 246.534 401.631 246.534H258.931C254.176 246.528 249.615 248.589 246.253 252.262C242.892 255.936 241.005 260.919 241.01 266.114V352.768C241.01 357.961 242.898 362.941 246.259 366.613C249.62 370.285 254.178 372.348 258.931 372.348L311.48 372.348Z" fill="white"/>
</mask>
<g mask="url(#mask3_56_166)">
<path d="M350.662 403.495L293.405 317.097L372.75 285.259L425.545 389.086L350.662 403.495Z" fill="black"/>
</g>
<path fill-rule="evenodd" clip-rule="evenodd" d="M311.48 372.348L315.39 376.62L319.68 381.308L324.337 386.395C327.62 389.982 332.943 389.982 336.226 386.395L340.858 381.334L344.44 377.42L349.083 372.348H401.631C406.384 372.348 410.943 370.285 414.303 366.613C417.664 362.941 419.552 357.961 419.552 352.768V266.114C419.552 255.3 411.529 246.534 401.631 246.534H258.931C254.176 246.528 249.615 248.589 246.253 252.262C242.892 255.936 241.005 260.919 241.01 266.114V352.768C241.01 357.961 242.898 362.941 246.259 366.613C249.62 370.285 254.178 372.348 258.931 372.348L311.48 372.348Z" stroke="#190000" stroke-width="1.1" stroke-linecap="round" stroke-linejoin="round"/>
<path d="M291.334 306.356L288.973 355.822C280.715 374.512 266.282 373.258 270.912 383.607C270.912 383.607 300.62 361.997 303.498 360.368C305.387 359.299 305.334 312.826 305.334 312.826L291.334 306.356Z" fill="#FACCC4"/>
<mask id="mask4_56_166" style="mask-type:luminance" maskUnits="userSpaceOnUse" x="270" y="306" width="36" height="78">
<path fill-rule="evenodd" clip-rule="evenodd" d="M291.334 306.356L288.973 355.822C280.715 374.512 266.282 373.258 270.912 383.607C270.912 383.607 300.62 361.997 303.498 360.368C305.387 359.299 305.334 312.826 305.334 312.826L291.334 306.356Z" fill="white"/>
</mask>
<g mask="url(#mask4_56_166)">
<path d="M287.676 325.675C280.407 334.952 304.448 337.714 304.791 348.132C305.133 358.55 308.261 331.371 308.261 331.371L287.676 325.675Z" fill="#ED707B"/>
</g>
<path fill-rule="evenodd" clip-rule="evenodd" d="M291.334 306.356L288.973 355.822C280.715 374.512 266.282 373.258 270.912 383.607C270.912 383.607 300.62 361.997 303.498 360.368C305.387 359.299 305.334 312.826 305.334 312.826L291.334 306.356Z" stroke="#190000" stroke-width="1.1" stroke-linecap="round" stroke-linejoin="round"/>
<path d="M295.185 199.365L268.389 239.321C252.105 250.005 240.664 240.311 239.343 251.741C239.343 251.741 275.031 251.462 278.257 251.823C280.373 252.06 303.647 213.162 303.647 213.162L295.185 199.365Z" fill="#FACCC4"/>
<mask id="mask5_56_166" style="mask-type:luminance" maskUnits="userSpaceOnUse" x="239" y="199" width="65" height="53">
<path fill-rule="evenodd" clip-rule="evenodd" d="M295.185 199.365L268.389 239.321C252.105 250.005 240.664 240.311 239.343 251.741C239.343 251.741 275.031 251.462 278.257 251.823C280.373 252.06 303.647 213.162 303.647 213.162L295.185 199.365Z" fill="white"/>
</mask>
<g mask="url(#mask5_56_166)">
<path d="M285.38 244.173L273.436 228.556L285.845 227.751L287.704 239.263L285.38 244.173Z" fill="#ED707B"/>
<path d="M273.436 228.556C267.001 234.05 284.34 241.259 279.99 250.186C275.641 259.112 289.94 249.348 289.94 249.348L286.961 230.648L278.62 225.595" fill="#ED707B"/>
</g>
<path fill-rule="evenodd" clip-rule="evenodd" d="M295.185 199.365L268.389 239.321C252.105 250.005 240.664 240.311 239.343 251.741C239.343 251.741 275.031 251.462 278.257 251.823C280.373 252.06 303.647 213.162 303.647 213.162L295.185 199.365Z" stroke="#190000" stroke-width="1.1" stroke-linecap="round" stroke-linejoin="round"/>
<path d="M270.017 225.448C272.419 241.161 298.949 251.741 298.949 251.741L319.902 206.013L353.783 250.873L379.136 223.407C379.136 223.407 321.985 168.042 313.293 168.655C304.6 169.267 270.017 225.448 270.017 225.448Z" fill="black"/>
<mask id="mask6_56_166" style="mask-type:luminance" maskUnits="userSpaceOnUse" x="270" y="168" width="110" height="84">
<path fill-rule="evenodd" clip-rule="evenodd" d="M270.017 225.448C272.419 241.161 298.949 251.741 298.949 251.741L319.902 206.013L353.783 250.873L379.136 223.407C379.136 223.407 321.985 168.042 313.293 168.655C304.6 169.267 270.017 225.448 270.017 225.448Z" fill="white"/>
</mask>
<g mask="url(#mask6_56_166)">
<ellipse cx="313.88" cy="168.784" rx="10.233" ry="7.22527" fill="black"/>
<path d="M275.084 205.632C270.017 225.448 291.507 238.811 307.473 242.549L275.084 205.632Z" fill="white"/>
<path d="M275.084 205.632C270.017 225.448 291.507 238.811 307.473 242.549" stroke="#190000" stroke-width="1.1" stroke-linecap="round" stroke-linejoin="round"/>
<path d="M290.179 235.28L312.338 194.223C313.117 192.78 314.452 191.8 315.969 191.557C317.485 191.315 319.021 191.835 320.146 192.974L356.893 230.172" stroke="white" stroke-width="1.1" stroke-linecap="round" stroke-linejoin="round"/>
<path d="M321.721 210.195C333.24 224.805 356.619 215.544 356.619 215.544L347.039 229.415L332.67 230.163" fill="black"/>
</g>
<path fill-rule="evenodd" clip-rule="evenodd" d="M270.017 225.448C272.419 241.161 298.949 251.741 298.949 251.741L319.902 206.013L353.783 250.873L379.136 223.407C379.136 223.407 321.985 168.042 313.293 168.655C304.6 169.267 270.017 225.448 270.017 225.448Z" stroke="black" stroke-width="1.1" stroke-linecap="round" stroke-linejoin="round"/>
<path d="M354.94 216.308C332.558 232.141 293.046 260.412 290.643 264.35C287.279 269.863 279.99 324.996 279.99 324.996C292.886 337.248 311.115 341.237 311.115 341.237L314.191 279.052C314.191 279.052 401.326 262.563 396.449 224.557C396.449 224.557 381.878 209.307 370.104 205.632" fill="black"/>
<mask id="mask7_56_166" style="mask-type:luminance" maskUnits="userSpaceOnUse" x="279" y="205" width="118" height="137">
<path fill-rule="evenodd" clip-rule="evenodd" d="M354.94 216.308C332.558 232.141 293.046 260.412 290.643 264.35C287.279 269.863 279.99 324.996 279.99 324.996C292.886 337.248 311.115 341.237 311.115 341.237L314.191 279.052C314.191 279.052 401.326 262.563 396.449 224.557C396.449 224.557 381.878 209.307 370.104 205.632" fill="white"/>
</mask>
<g mask="url(#mask7_56_166)">
<path d="M363.563 179.052C353.807 235.851 414.672 232.442 353.003 269.399C291.334 306.356 425.308 286.779 425.308 286.779L445.298 194.673L429.211 187.35" fill="black"/>
<ellipse rx="11.3127" ry="7.30722" transform="matrix(0.756774 -0.653676 0.586207 0.810161 289.976 264.55)" fill="black"/>
<path d="M273.715 306.356C271.435 320.054 312.035 333.013 321.159 331.518" stroke="white" stroke-width="1.1" stroke-linecap="round" stroke-linejoin="round"/>
<path d="M297.437 325.978L303.229 276.967C303.478 274.841 304.863 273.082 306.749 272.496C321.156 268.014 381.122 247.954 388.283 222.537" stroke="white" stroke-width="1.1" stroke-linecap="round" stroke-linejoin="round"/>
</g>
<path d="M354.94 216.308C332.558 232.141 293.046 260.412 290.643 264.35C287.279 269.863 279.99 324.996 279.99 324.996C292.886 337.248 311.115 341.237 311.115 341.237L314.191 279.052C314.191 279.052 401.326 262.563 396.449 224.557C396.449 224.557 381.878 209.307 370.104 205.632" stroke="black" stroke-width="1.1" stroke-linecap="round" stroke-linejoin="round"/>
<path d="M383.667 49.3224L324.113 142.724L335.884 161.559L447.322 158.299L383.667 49.3224Z" fill="url(#paint0_linear_56_166)"/>
<path d="M382.111 130.418C386.544 135.374 386.244 153.788 386.244 153.788L401.164 149.528L395.775 119.42L382.111 130.418Z" fill="#FACCC4"/>
<mask id="mask8_56_166" style="mask-type:luminance" maskUnits="userSpaceOnUse" x="382" y="119" width="20" height="35">
<path fill-rule="evenodd" clip-rule="evenodd" d="M382.111 130.418C386.544 135.374 386.244 153.788 386.244 153.788L401.164 149.528L395.775 119.42L382.111 130.418Z" fill="white"/>
</mask>
<g mask="url(#mask8_56_166)">
<path d="M381.732 140.695L390.163 135.101L381.435 135.019L381.732 140.695Z" fill="#ED707B"/>
<path d="M380.717 149.014C392.997 147.681 382.942 140.823 390.439 138.17C397.937 135.516 383.47 135.17 383.47 135.17L381.675 139.208" fill="#ED707B"/>
</g>
<path fill-rule="evenodd" clip-rule="evenodd" d="M382.111 130.418C386.544 135.374 386.244 153.788 386.244 153.788L401.164 149.528L395.775 119.42L382.111 130.418Z" stroke="#190000" stroke-width="1.1" stroke-linecap="round" stroke-linejoin="round"/>
<path d="M379.238 133.132C373.538 132.924 369.166 124.764 370.925 121.133C372.684 117.501 378.328 114.372 376.207 110.961C374.086 107.551 387.071 108.203 387.071 108.203L390.902 113.635L387.534 126.733L379.238 133.132Z" fill="#4B4D5C" stroke="#190000" stroke-width="1.1" stroke-linecap="round" stroke-linejoin="round"/>
<path d="M380.786 111.4C376.034 118.049 366.886 149.019 389.131 138.425C392.733 136.71 393.378 138.836 393.378 138.836L396.8 118.126L380.786 111.4Z" fill="#FACCC4" stroke="#190000" stroke-width="1.1" stroke-linecap="round" stroke-linejoin="round"/>
<path d="M379.074 126.358C378.529 126.143 378.247 125.487 378.443 124.892L379.044 123.071C379.241 122.476 379.842 122.168 380.386 122.382C380.931 122.597 381.213 123.253 381.017 123.849L380.416 125.669C380.22 126.264 379.619 126.573 379.074 126.358Z" fill="#190000"/>
<path d="M380.069 118.844C383.096 119.874 383.314 121.484 381.383 120.976C379.452 120.467 378.091 118.171 380.069 118.844Z" fill="#190000"/>
<path d="M377.009 122.61C373.292 123.357 372.882 128.082 375.961 128.08L377.009 122.61Z" fill="#FACCC4"/>
<path d="M377.009 122.61C373.292 123.357 372.882 128.082 375.961 128.08" stroke="#190000" stroke-width="1.1" stroke-linecap="round" stroke-linejoin="round"/>
<ellipse opacity="0.4" cx="385.793" cy="129.44" rx="3.52167" ry="3.84776" fill="#ED636F"/>
<path d="M380.342 129.999C379.959 130.382 379.5 130.664 379 130.823" stroke="black" stroke-width="1.1" stroke-linecap="round" stroke-linejoin="round"/>
<path d="M392.951 129.799C393.216 129.459 393.643 129.328 394.032 129.468C394.42 129.607 394.693 129.989 394.723 130.435C394.753 130.88 394.533 131.301 394.167 131.501" stroke="#190000" stroke-width="1.1" stroke-linecap="round" stroke-linejoin="round"/>
<ellipse rx="3.2142" ry="2.28157" transform="matrix(0.0800022 -0.996795 0.995442 0.0953737 395.414 124.682)" fill="#D8EAFD"/>
<path d="M334.111 153.797C337.381 158.604 342.416 165.474 342.205 170.415C342.192 170.739 342.157 171.062 342.102 171.381C341.203 176.511 352.342 196.739 352.342 196.739L376.825 164.809L396.449 171.585C396.449 171.585 374.006 196.148 358.942 212.303C353.046 218.626 343.082 215.199 341.566 206.327C339.047 191.581 336.339 173.987 336.339 173.987C336.339 173.987 330.846 162.319 330.695 161.773C330.544 161.226 331.484 154.362 332.182 154.57C332.88 154.779 332.427 156.368 332.427 156.368C332.427 156.368 334.05 161.243 334.75 161.416C335.451 161.59 333.748 156.104 333.602 155.487C333.457 154.87 334.111 153.797 334.111 153.797Z" fill="#FACCC4"/>
<mask id="mask9_56_166" style="mask-type:luminance" maskUnits="userSpaceOnUse" x="330" y="153" width="67" height="63">
<path fill-rule="evenodd" clip-rule="evenodd" d="M334.111 153.797C337.381 158.604 342.416 165.474 342.205 170.415C342.192 170.739 342.157 171.062 342.102 171.381C341.203 176.511 352.342 196.739 352.342 196.739L376.825 164.809L396.449 171.585C396.449 171.585 374.006 196.148 358.942 212.303C353.046 218.626 343.082 215.199 341.566 206.327C339.047 191.581 336.339 173.987 336.339 173.987C336.339 173.987 330.846 162.319 330.695 161.773C330.544 161.226 331.484 154.362 332.182 154.57C332.88 154.779 332.427 156.368 332.427 156.368C332.427 156.368 334.05 161.243 334.75 161.416C335.451 161.59 333.748 156.104 333.602 155.487C333.457 154.87 334.111 153.797 334.111 153.797Z" fill="white"/>
</mask>
<g mask="url(#mask9_56_166)">
<path d="M356.122 181.087C366.681 181.318 361.19 213.16 361.19 213.16L371.476 198.78L374.833 177.165L364.569 174.681" fill="#ED707B"/>
</g>
<path fill-rule="evenodd" clip-rule="evenodd" d="M334.111 153.797C337.381 158.604 342.416 165.474 342.205 170.415C342.192 170.739 342.157 171.062 342.102 171.381C341.203 176.511 352.342 196.739 352.342 196.739L376.825 164.809L396.449 171.585C396.449 171.585 374.006 196.148 358.942 212.303C353.046 218.626 343.082 215.199 341.566 206.327C339.047 191.581 336.339 173.987 336.339 173.987C336.339 173.987 330.846 162.319 330.695 161.773C330.544 161.226 331.484 154.362 332.182 154.57C332.88 154.779 332.427 156.368 332.427 156.368C332.427 156.368 334.05 161.243 334.75 161.416C335.451 161.59 333.748 156.104 333.602 155.487C333.457 154.87 334.111 153.797 334.111 153.797Z" stroke="#190000" stroke-width="1.1" stroke-linecap="round" stroke-linejoin="round"/>
<path d="M380.849 108.388C379.907 113.458 382.655 123.647 385.15 131.364C386.982 137.028 388.018 138.773 388.018 138.773L410.962 139.954C410.962 139.954 409.882 104.312 380.849 108.388Z" fill="#000210" stroke="#190000" stroke-width="1.1" stroke-linecap="round" stroke-linejoin="round"/>
<path d="M400.528 144.229C398.436 146.016 385.201 150.401 384.52 151.069C382.546 153.009 367.564 170.947 366.35 176.366C365.136 181.785 362.265 208.732 362.265 208.732L397.168 227.251C397.168 227.251 404.502 185.344 406.202 183.59C406.902 182.868 404.942 179.246 406.655 177.14L414.301 174.171C414.301 174.171 410.935 158.953 408.232 153.797C405.528 148.642 400.528 144.229 400.528 144.229Z" fill="black"/>
<mask id="mask10_56_166" style="mask-type:luminance" maskUnits="userSpaceOnUse" x="362" y="144" width="53" height="84">
<path fill-rule="evenodd" clip-rule="evenodd" d="M400.528 144.229C398.436 146.016 385.201 150.401 384.52 151.069C382.546 153.009 367.564 170.947 366.35 176.366C365.136 181.785 362.265 208.732 362.265 208.732L397.168 227.251C397.168 227.251 404.502 185.344 406.202 183.59C406.902 182.868 404.942 179.246 406.655 177.14L414.301 174.171C414.301 174.171 410.935 158.953 408.232 153.797C405.528 148.642 400.528 144.229 400.528 144.229Z" fill="white"/>
</mask>
<g mask="url(#mask10_56_166)">
<path d="M403.56 182.37L397.693 180.207C397.693 180.207 406.678 232.958 360.281 205.632C313.884 178.306 382.096 237.67 382.096 237.67L419.745 251.174L452.703 189.122L423.742 179.476" fill="black"/>
<path d="M375.208 153.788C362.265 170.028 380.957 177.305 400.639 181.293L407.074 197.276C407.074 197.276 368.83 199.365 360.847 174.681C356.649 161.701 375.208 153.788 375.208 153.788Z" fill="white" stroke="#190000" stroke-width="1.1" stroke-linecap="round" stroke-linejoin="round"/>
</g>
<path fill-rule="evenodd" clip-rule="evenodd" d="M400.528 144.229C398.436 146.016 385.201 150.401 384.52 151.069C382.546 153.009 367.564 170.947 366.35 176.366C365.136 181.785 362.265 208.732 362.265 208.732L397.168 227.251C397.168 227.251 404.502 185.344 406.202 183.59C406.902 182.868 404.942 179.246 406.655 177.141L414.301 174.171C414.301 174.171 410.935 158.953 408.232 153.797C405.528 148.642 400.528 144.229 400.528 144.229Z" stroke="#190000" stroke-width="1.1" stroke-linecap="round" stroke-linejoin="round"/>
<path d="M413.154 174.681L397.693 180.207L406.548 215.544C406.548 215.544 371.687 222.436 367.668 222.903C363.649 223.369 353.532 228.042 352.619 228.486C351.707 228.931 351.859 240.389 351.886 240.657C351.913 240.926 353.911 242.129 355.14 240.171C356.369 238.213 358.165 233.435 358.468 233.305C358.77 233.174 368.951 228.933 368.951 228.933L412.249 229.845C419.563 230 425.071 222.619 423.461 214.822L413.154 174.681Z" fill="#FACCC4"/>
<mask id="mask11_56_166" style="mask-type:luminance" maskUnits="userSpaceOnUse" x="351" y="174" width="73" height="68">
<path fill-rule="evenodd" clip-rule="evenodd" d="M413.154 174.681L397.693 180.207L406.548 215.544C406.548 215.544 371.687 222.436 367.668 222.903C363.649 223.369 353.532 228.042 352.619 228.486C351.707 228.931 351.859 240.389 351.886 240.657C351.913 240.926 353.911 242.129 355.14 240.171C356.369 238.213 358.165 233.435 358.468 233.305C358.77 233.174 368.951 228.933 368.951 228.933L412.249 229.845C419.563 229.999 425.071 222.619 423.461 214.822L413.154 174.681Z" fill="white"/>
</mask>
<g mask="url(#mask11_56_166)">
<path d="M384.421 179.241C403.56 182.37 412.172 177.87 415.719 184.67C419.266 191.471 419.689 171.627 419.689 171.627L403.005 173.473" fill="#ED707B"/>
</g>
<path fill-rule="evenodd" clip-rule="evenodd" d="M413.154 174.681L397.693 180.207L406.548 215.544C406.548 215.544 371.687 222.436 367.668 222.903C363.649 223.369 353.532 228.042 352.619 228.486C351.707 228.931 351.859 240.389 351.886 240.657C351.913 240.926 353.911 242.129 355.14 240.171C356.369 238.213 358.165 233.435 358.468 233.305C358.77 233.174 368.951 228.933 368.951 228.933L412.249 229.845C419.563 230 425.071 222.619 423.461 214.822L413.154 174.681Z" stroke="black" stroke-width="1.1" stroke-linecap="round" stroke-linejoin="round"/>
<rect width="2.17639" height="23.0596" rx="0.59533" transform="matrix(-0.823138 0.567841 -0.500344 -0.865827 337.041 160.761)" fill="#4B4D5C" stroke="#190000" stroke-width="1.1" stroke-linecap="round" stroke-linejoin="round"/>
<path d="M352.332 196.611V199.602" stroke="black" stroke-width="1.1" stroke-linecap="round" stroke-linejoin="round"/>
<path d="M376.129 205.416L378.182 205.915" stroke="white" stroke-width="1.1" stroke-linecap="round" stroke-linejoin="round"/>
<path d="M406.922 215.385H410.343" stroke="black" stroke-width="1.1" stroke-linecap="round" stroke-linejoin="round"/>
<path d="M394.638 119.198C393.713 123.409 394.974 128.111 397.833 131.111" stroke="white" stroke-width="1.1" stroke-linecap="round" stroke-linejoin="round"/>
<path d="M312.322 277.63C312.905 278.335 313.678 278.819 314.53 279.011" stroke="white" stroke-width="1.1" stroke-linecap="round" stroke-linejoin="round"/>
<path d="M296.278 213.907C297.158 215.028 298.161 216.024 299.266 216.874" stroke="white" stroke-width="1.1" stroke-linecap="round" stroke-linejoin="round"/>
</g>
<defs>
<linearGradient id="paint0_linear_56_166" x1="296.673" y1="185.002" x2="406.558" y2="154.573" gradientUnits="userSpaceOnUse">
<stop offset="0.1011" stop-color="#21201E"/>
<stop offset="1" stop-color="white" stop-opacity="0.01"/>
</linearGradient>
</defs>
</svg>
