<svg width="52" height="44" viewBox="0 0 52 44" fill="none" xmlns="http://www.w3.org/2000/svg">
<path d="M27.2188 4.125V8.25C27.2188 8.5235 27.0903 8.78581 26.8618 8.9792C26.6332 9.1726 26.3232 9.28125 26 9.28125C25.6768 9.28125 25.3668 9.1726 25.1382 8.9792C24.9097 8.78581 24.7812 8.5235 24.7812 8.25V4.125C24.7812 3.8515 24.9097 3.58919 25.1382 3.3958C25.3668 3.2024 25.6768 3.09375 26 3.09375C26.3232 3.09375 26.6332 3.2024 26.8618 3.3958C27.0903 3.58919 27.2188 3.8515 27.2188 4.125ZM35.75 10.6562C35.4268 10.6562 35.1168 10.7649 34.8882 10.9583C34.6597 11.1517 34.5312 11.414 34.5312 11.6875V15.8125C34.5312 16.086 34.6597 16.3483 34.8882 16.5417C35.1168 16.7351 35.4268 16.8438 35.75 16.8438C36.0732 16.8438 36.3832 16.7351 36.6118 16.5417C36.8403 16.3483 36.9688 16.086 36.9688 15.8125V11.6875C36.9688 11.414 36.8403 11.1517 36.6118 10.9583C36.3832 10.7649 36.0732 10.6562 35.75 10.6562ZM26 34.7188C25.6768 34.7188 25.3668 34.8274 25.1382 35.0208C24.9097 35.2142 24.7812 35.4765 24.7812 35.75V39.875C24.7812 40.1485 24.9097 40.4108 25.1382 40.6042C25.3668 40.7976 25.6768 40.9062 26 40.9062C26.3232 40.9062 26.6332 40.7976 26.8618 40.6042C27.0903 40.4108 27.2188 40.1485 27.2188 39.875V35.75C27.2188 35.4765 27.0903 35.2142 26.8618 35.0208C26.6332 34.8274 26.3232 34.7188 26 34.7188ZM26 12.7188C25.6768 12.7188 25.3668 12.8274 25.1382 13.0208C24.9097 13.2142 24.7812 13.4765 24.7812 13.75V30.25C24.7812 30.5235 24.9097 30.7858 25.1382 30.9792C25.3668 31.1726 25.6768 31.2812 26 31.2812C26.3232 31.2812 26.6332 31.1726 26.8618 30.9792C27.0903 30.7858 27.2188 30.5235 27.2188 30.25V13.75C27.2188 13.4765 27.0903 13.2142 26.8618 13.0208C26.6332 12.8274 26.3232 12.7188 26 12.7188ZM16.25 10.6562C15.9268 10.6562 15.6168 10.7649 15.3882 10.9583C15.1597 11.1517 15.0312 11.414 15.0312 11.6875V22.6875C15.0312 22.961 15.1597 23.2233 15.3882 23.4167C15.6168 23.6101 15.9268 23.7188 16.25 23.7188C16.5732 23.7188 16.8832 23.6101 17.1118 23.4167C17.3403 23.2233 17.4688 22.961 17.4688 22.6875V11.6875C17.4688 11.414 17.3403 11.1517 17.1118 10.9583C16.8832 10.7649 16.5732 10.6562 16.25 10.6562ZM35.75 20.2812C35.4268 20.2812 35.1168 20.3899 34.8882 20.5833C34.6597 20.7767 34.5312 21.039 34.5312 21.3125V32.3125C34.5312 32.586 34.6597 32.8483 34.8882 33.0417C35.1168 33.2351 35.4268 33.3438 35.75 33.3438C36.0732 33.3438 36.3832 33.2351 36.6118 33.0417C36.8403 32.8483 36.9688 32.586 36.9688 32.3125V21.3125C36.9688 21.039 36.8403 20.7767 36.6118 20.5833C36.3832 20.3899 36.0732 20.2812 35.75 20.2812ZM6.5 18.9062C6.17677 18.9062 5.86677 19.0149 5.63821 19.2083C5.40965 19.4017 5.28125 19.664 5.28125 19.9375V24.0625C5.28125 24.336 5.40965 24.5983 5.63821 24.7917C5.86677 24.9851 6.17677 25.0938 6.5 25.0938C6.82323 25.0938 7.13323 24.9851 7.36179 24.7917C7.59035 24.5983 7.71875 24.336 7.71875 24.0625V19.9375C7.71875 19.664 7.59035 19.4017 7.36179 19.2083C7.13323 19.0149 6.82323 18.9062 6.5 18.9062ZM16.25 27.1562C15.9268 27.1562 15.6168 27.2649 15.3882 27.4583C15.1597 27.6517 15.0312 27.914 15.0312 28.1875V32.3125C15.0312 32.586 15.1597 32.8483 15.3882 33.0417C15.6168 33.2351 15.9268 33.3438 16.25 33.3438C16.5732 33.3438 16.8832 33.2351 17.1118 33.0417C17.3403 32.8483 17.4688 32.586 17.4688 32.3125V28.1875C17.4688 27.914 17.3403 27.6517 17.1118 27.4583C16.8832 27.2649 16.5732 27.1562 16.25 27.1562ZM45.5 18.9062C45.1768 18.9062 44.8668 19.0149 44.6382 19.2083C44.4097 19.4017 44.2812 19.664 44.2812 19.9375V24.0625C44.2812 24.336 44.4097 24.5983 44.6382 24.7917C44.8668 24.9851 45.1768 25.0938 45.5 25.0938C45.8232 25.0938 46.1332 24.9851 46.3618 24.7917C46.5903 24.5983 46.7188 24.336 46.7188 24.0625V19.9375C46.7188 19.664 46.5903 19.4017 46.3618 19.2083C46.1332 19.0149 45.8232 18.9062 45.5 18.9062Z" fill="white"/>
</svg>
